<svg xmlns="http://www.w3.org/2000/svg"  width="59" height="64">
    <symbol id="calendar" viewBox="0 0 59 64" >
        <path d="M4.6 59.4H15V49H4.5v10.4zm12.5 0h11.6V49H17v10.4zM4.7 47H15V35.3H4.5V47zM17 47h11.6V35.3H17V47zM4.7 33H15V23H4.5v10zM31 59.5h11.3V49H31v10.4zM17 33h11.6V23H17v10zm27.6 26.4H55V49H44.5v10.4zM31 47h11.3V35.3H31V47zM18.2 16V5.7q0-.4-.4-.8t-1-.4h-2q-.6 0-1 .3t-.3.7V16q0 .5.4.8t1 .3h2q.6 0 1-.2t.3-.8zm26.3 31H55V35.3H44.5V47zM31 33h11.3V23H31v10zm13.6 0H55V23H44.5v10zm1-17V5.7q0-.4-.2-.8t-.8-.4h-2.3q-.5 0-.8.3t-.4.7V16q0 .5.5.8t.8.3h2.3q.4 0 .8-.2t.3-.8zm13.8-2.3v45.7q0 2-1.3 3.2T55 64H4.5q-2 0-3.2-1.4T0 59.4V13.7q0-1.8 1.4-3.2T4.6 9H9V5.8q0-2.3 1.8-4t4-1.7h2.3q2.5 0 4.2 1.7t1.7 4V9h13.6V5.8q0-2.3 1.7-4t4-1.7h2.3q2.3 0 4 1.7t1.7 4V9H55q1.7 0 3 1.5t1.4 3.2z"/>
    </symbol>
</svg>