<svg xmlns="http://www.w3.org/2000/svg" width="64" height="64" >
    <symbol id="cog" viewBox="0 0 64 64">
        <path d="M36.6 32q0-3.8-2.7-6.5T27.3 23 21 25.4 18.3 32t2.7 6.5 6.4 2.6 6.5-2.5 2.6-6.5zM55 28v8q0 .5-.4 1t-.7.3l-6.8 1q-.6 2-1.3 3.3 1 1.8 3.7 5 .3.3.3.8t-.3.8q-1 1.3-3.5 4t-3.4 2.4q-.4 0-1-.3l-4.8-4q-1.6 1-3.3 1.5-.6 4.8-1 6.6-.3 1-1.3 1h-8q-.4 0-.8-.3t-.4-.6l-1-6.6q-1.8-.6-3.2-1.3l-5 3.8q-.4.3-1 .3-.5 0-1-.4-4.4-4-5.8-6-.2-.3-.2-.8 0-.4.3-.8.5-.8 1.8-2.4t2-2.5Q8 40 7.6 38L1 37.3q-.4 0-.7-.5T0 36v-8q0-.5.3-1t.7-.3l6.6-1Q8 24 9 22.4l-3.8-5q-.4-.4-.4-.8 0-.3.3-.8 1-1.3 3.7-4T12 9.5q.5 0 1 .4l5 3.8 3-1.4q.7-4.8 1.2-6.6.2-1 1.3-1h8q.4 0 .8.3t.4.6l1 6.6 3.2 1.3 5-3.8q.3-.3.8-.3t1 .4q4.5 4.2 5.8 6 .3.3.3.8 0 .4-.4.8-.6.8-2 2.4T46 22.3q1 1.8 1.5 3.5l6.5 1q.5 0 .8.5t.3.8z"/>
    </symbol>
</svg>