<svg xmlns="http://www.w3.org/2000/svg"  width="64" height="64">
    <symbol id="gift"  viewBox="0 0 64 64">
        <path d="M33 48.4V23H21.8v25.4q0 1 .7 1.4t1.6.5h7q1 0 1.5-.5t.6-1.4zm-16-30h6.8l-4.5-6q-1-1-2.4-1-1.6 0-2.6 1t-1 2.5 1 2.3 2.5 1zm24.4-3.5q0-1.6-1-2.6t-2.4-1q-1.5 0-2.5 1l-4.4 6h7q1.4 0 2.4-1t1-2.5zM55 24v11.4q0 .5-.5 1t-.8.2h-3.4v14.8q0 1.5-1 2.5T47 55H8q-1.4 0-2.4-1t-1-2.6V36.6H1q-.4 0-.7-.4t-.3-.8V24q0-.5.3-.8T1 23h16q-3.5 0-5.8-2.5T9 15 11 9 17 7q3.7 0 6 2.6l4.4 6 4.6-6Q34.2 7 38 7q3.3 0 5.7 2.2T46 15t-2.3 5.5T38 23h15.7q.5 0 .8.2t.4.8z"/>
    </symbol>
    </svg>