<svg xmlns="http://www.w3.org/2000/svg"  width="69" height="64">
    <symbol id="group" viewBox="0 0 69 64">
        <path d="M21.2 32q-5.8.2-9.5 4.6H7q-3 0-5-1.5t-2-4q0-12.7 4.4-12.7.2 0 1.6.7t3.5 1.6 4.2.7q2.4 0 4.8-.8l-.2 2.4q0 4.8 3 9zm38.2 22.8q0 4.2-2.6 6.7t-7 2.5H19q-4.4 0-7-2.5T9 54.8q0-2 .3-3.7t.5-3.8 1-4T12 40t2.3-3 3-1.8 4-.7q.4 0 1.5.8t2.6 1.8 4 1.7 4.7.7 4.8-.7 4-1.7 2.5-1.7 1.6-.7q2.2 0 4 .7t3 2 2.3 2.8 1.6 3.5.8 4 .5 3.8 0 3.8zM23 9q0 4-2.8 6.6t-6.5 2.7-6.4-2.7T4.5 9t2.6-6.3T13.8 0t6.5 2.7T23 9zm25 14q0 5.5-4 9.6t-9.7 4-9.7-4-4-9.7 4-9.8 9.7-4 9.7 4 4 9.7zm20.6 8q0 2.7-2 4t-5 1.6H57Q53 32.2 47.3 32q3-4.2 3-9 0-1.2-.3-2.5 2.5.8 5 .8 2 0 4-.7t3.6-1.6 1.5-.7q4.6 0 4.6 12.6zM64 9q0 4-2.7 6.6T55 18.3t-6.6-2.7T45.7 9t2.7-6.3T55 0t6.3 2.7T64 9z"/>
    </symbol>
    </svg>