<svg xmlns="http://www.w3.org/2000/svg" width="64" height="64">
    <symbol id="mail" viewBox="0 0 64 64">
        <path d="M64 25.4v28.3q0 2.4-1.7 4t-4 1.7H5.7q-2.3 0-4-1.6t-1.7-4V25.3q1.6 1.7 3.6 3 13 8.8 17.8 12.4 2 1.5 3.3 2.3T28 45t4 1q2 0 4-1t3.3-1.7 3.3-2.2q6-4.4 17.8-12.3 2-1.4 3.6-3zM64 15q0 2.7-1.8 5.2T58 24.6L41 36.2l-1.5 1-2 1.5L36 40l-2.2.8-1.8.3q-1 0-1.8-.2t-2-1-2-1-2-1.5-1.4-1q-3.2-2.3-9.3-6.6t-7.4-5Q4 23 2 20.4t-2-5Q0 13 1.5 11t4.2-2h52.6q2.3 0 4 1.8t1.7 4z"/>
    </symbol>
    </svg>