<svg xmlns="http://www.w3.org/2000/svg"  width="50" height="64">
    <symbol id="paper_clip"  viewBox="0 0 50 64">
        <path d="M50 49.5q0 4-2.7 7t-7 2.8q-4.8 0-8.4-3.6L4 28q-4-4-4-9.7 0-5.7 4-9.6t9.5-4q5.6 0 9.7 4L45 30.4q.4.3.4.8t-1 1.6-1.8 1l-.8-.2L20.2 12q-2.8-3-6.5-3Q10 9 7.3 12t-2.6 6.5q0 3.7 2.7 6.4L35 52.5q2.4 2.3 5.3 2.3 2.3 0 3.8-1.5t1.6-3.8q0-3-2.2-5.2L22.6 23.5q-1-.8-2-.8-1.2 0-1.8.7T18 25q0 1.2 1 2.2l14.6 14.6q.4.4.4.8 0 .6-1 1.7t-1.8 1q-.4 0-.8-.3L15.8 30.4q-2.3-2.2-2.3-5.3 0-3 2-5t5-2q3 0 5.3 2.3L46.6 41q3.5 3.6 3.5 8.5z"/>
    </symbol>
    </svg>