<svg xmlns="http://www.w3.org/2000/svg" width="50" height="64" >
    <symbol id="phone"  viewBox="0 0 50 64">
        <path d="M50.3 44.3q0 1-.4 2.5t-.8 2.5q-.8 1.7-4.4 3.7-3.3 2-6.6 2-1 0-2-.3t-2-.4-1.6-.5-2-.8-1.8-.6q-3.5-1.3-6.2-3-4.6-2.8-9.5-7.7t-7.6-9.4q-1.7-2.8-3-6.3 0-.3-.6-1.7t-.7-2-.4-1.7-.5-2 0-2q0-3.2 1.8-6.6 2-3.6 3.8-4.3 1-.4 2.5-.8t2.6-.4h.7q.7.3 2 2.8.3.7 1 2t1.2 2.2 1 2q.2 0 .8.8t.7 1.3.3 1q0 .7-1 1.8t-2.2 2-2.2 1.8-1 1.7q0 .3.2.8t.3.7.5 1 .4.5q2.7 5 6.2 8.4t8.4 6.2l.7.5 1 .6.6.3h1q.5 0 1.5-1t2-2.2 2-2.2 1.7-1q.5 0 1 .2t1.3.8 1 .6q.8.6 1.8 1t2.2 1.4 2 1q2.5 1.3 2.7 2v.7z"/>
    </symbol>
    </svg>