<?xml version="1.0" encoding="utf-8"?>
<!-- Generator: Adobe Illustrator 21.0.0, SVG Export Plug-In . SVG Version: 6.00 Build 0)  -->
<svg version="1.1" id="Слой_1" xmlns="http://www.w3.org/2000/svg" xmlns:xlink="http://www.w3.org/1999/xlink" x="0px" y="0px"
	 viewBox="0 0 22 22" style="enable-background:new 0 0 22 22;" xml:space="preserve">
<style type="text/css">
	.st0{fill:#666666;}
</style>
<title>search</title>
<path class="st0" d="M8.6,0.2H11c0.1,0,0.3,0,0.4,0c3.8,0.6,6.9,3.6,7.6,7.4c0.7,2.8,0.1,5.7-1.6,8c0.3,0.2,0.6,0.4,0.8,0.7
	c1,1.2,2.3,2.3,3.5,3.5c0.4,0.5,0.7,1,0.2,1.6c-0.4,0.4-0.9,0.7-1.5,0.7c-0.2,0-0.7-0.3-1-0.6l-4-4L14.7,18
	c-4.6,2.7-10.5,1.2-13.1-3.4c-0.2-0.4-0.4-0.7-0.6-1.1c-0.3-0.8-0.6-1.7-0.8-2.5V8.6c0-0.2,0-0.3,0-0.5C0.8,4.9,3,2.2,6,1
	c0.9-0.4,1.8-0.7,2.7-1L8.6,0.2z M9.8,3C6,3,3,6,3,9.8s3,6.8,6.8,6.8s6.8-3,6.8-6.8c0.1-3.8-2.8-6.9-6.6-7c-0.1,0-0.1,0-0.2,0V3z"/>
</svg>
