<svg xmlns="http://www.w3.org/2000/svg" width="59" height="64" >
    <symbol id="shopping_cart" viewBox="0 0 59 64">
        <path d="M23 55q0 1.7-1.5 3t-3.2 1.4T15 58t-1.3-3 1.4-3.4 3.3-1.3 3.2 1.3T23 55zm32 0q0 1.7-1.5 3t-3.2 1.4T47 58t-1.3-3 1.4-3.4 3.3-1.3 3.2 1.3T55 55zm4.4-39v18.3q0 .8-.6 1.5t-1.4.8L20 41l.6 2.4q0 .6-1 2.3h33q1 0 1.6.7T55 48t-.8 1.6-1.6.7H16q-1 0-1.6-.7t-.7-1.6q0-.4.3-1t.6-1.4.7-1.4.6-1L9.5 13.6H2.3q-1 0-1.6-.7T0 11.4t.7-1.6T2.3 9h9q.7 0 1 .4t.8.5.6.8.3 1 0 1 .3 1H57q1 0 1.8.6t.6 1.6z"/>
    </symbol>
    </svg>