<svg xmlns="http://www.w3.org/2000/svg"  width="64" height="64" >
    <symbol id="thumbs_up_alt" viewBox="0 0 64 64">
        <path d="M9 48q0-1-.5-1.6T7 45.7t-1.7.7-.7 1.6.7 1.6 1.6.7 1.5-.7T9 48zm41.3-20.6q0-1.8-1.4-3.2T45.6 23H33q0-2.2 2-5.8t1.6-5.8q0-3.5-1.2-5T31 4.5q-1 1-1.5 3t-1 4.5-2.2 4l-2.8 3.3q0 0-.8 1t-1 1.5-1.3 1.5T19 25t-1.4 1-1.5 1-1 .4h-1.3v23H16l1.2.2 1.3.4 1.3.4 1.2.5 1 .2Q29.7 55 34.4 55h4.3q7 0 7-6 0-1-.3-2 1-.7 1.7-2t.6-2.6T47 40q2-2 2-4.3 0-1-.5-2t-1-1.7q1.2 0 2-1.7t.8-3zm4.6 0q0 3.2-2 5.8.4 1.2.4 2.5 0 2.7-1.3 5l.2 1.7q0 3.6-2.2 6.3 0 5-3 8t-8 2.7h-4.7q-3.4 0-6.8-.8t-7.7-2.3q-4.2-1.4-5-1.4H4.7q-2 0-3.3-1.5T0 50.3v-23q0-1.8 1.3-3t3.3-1.4h9.8q1.2-1 4.8-5.7 2-2.7 4-4.6.7-.8 1-3t1.2-4.5 2.2-4Q29 0 31 0q3 0 5.2 1.2T40 4.8t1 6.6q0 3.3-1.6 7h6.3q3.7 0 6.4 2.6t3 6.4z"/>
    </symbol>
    </svg>