<?xml version="1.0" encoding="utf-8"?>
<!-- Generator: Adobe Illustrator 21.0.0, SVG Export Plug-In . SVG Version: 6.00 Build 0)  -->
<svg version="1.1" id="twitter_sign" xmlns="http://www.w3.org/2000/svg" xmlns:xlink="http://www.w3.org/1999/xlink" x="0px"
	 y="0px" viewBox="0 0 64 64" style="enable-background:new 0 0 64 64;" xml:space="preserve">
<style type="text/css">
	.st0{fill:#666666;}
</style>
<path class="st0" d="M45.7,21.8c-1.3,0.7-2.8,1.1-4.3,1.2c1.6-0.9,2.7-2.3,3.3-4.2c-1.5,0.9-3.1,1.5-4.8,1.8
	c-1.5-1.5-3.4-2.3-5.5-2.3c-2,0-3.8,0.7-5.3,2.2c-1.5,1.5-2.2,3.2-2.1,5.3v1.7c-3-0.2-5.8-1-8.5-2.3c-2.7-1.3-5-3.2-7-5.6
	c-0.7,1.2-1,2.5-1,3.8c0,2.7,1.1,4.8,3.4,6.3c-1.2,0-2.4-0.3-3.7-1c0,1.9,0.6,3.5,1.8,5s2.7,2.3,4.5,2.5c-0.7,0.2-1.3,0.3-2,0.3
	l-1.2-0.2c0.5,1.5,1.4,2.8,2.7,3.7s2.8,1.4,4.3,1.5c-2.9,2.1-6,3.2-9.3,3.2H9c3.7,2.2,7.6,3.3,11.7,3.3c2.7,0,5.2-0.4,7.5-1.3
	c2.3-0.9,4.3-2,6-3.4c1.7-1.4,3.1-3.1,4.4-5c1.3-1.9,2.2-3.8,2.7-5.6c0.5-1.8,0.9-3.8,1-6v-1c1.5-1.1,2.7-2.4,3.7-4L45.7,21.8z
	 M54.9,14.8v34.3c0,2.9-1.1,5.4-3.2,7.4c-2.1,2-4.5,3-7.2,3H10.3c-2.9,0-5.3-1-7.3-3S0,52,0,49V15c0-2.9,1-5.4,3-7.4s4.4-3,7.3-3
	h34.3c2.8,0,5.2,1,7.2,3s3,4.4,3,7.3L54.9,14.8z"/>
</svg>
