<?xml version="1.0" encoding="utf-8"?>
<!-- Generator: Adobe Illustrator 21.0.0, SVG Export Plug-In . SVG Version: 6.00 Build 0)  -->
<svg version="1.1" id="vk" xmlns="http://www.w3.org/2000/svg" xmlns:xlink="http://www.w3.org/1999/xlink" x="0px" y="0px"
	 viewBox="0 0 69 64" style="enable-background:new 0 0 69 64;" xml:space="preserve">
<style type="text/css">
	.st0{fill:#666666;}
</style>
<path class="st0" d="M68.5,18.6C69,20.2,67.2,23.7,63,29l-2,3c-0.9,1.3-1.6,2.2-2,2.7s-0.7,1-1,1.7s-0.4,1.2-0.5,1.5
	s0.1,0.7,0.5,1.2s0.7,1,1,1.5s1,1.2,2.2,2c3.5,3.1,5.8,5.8,7,8c0,0,0.1,0.1,0.2,0.4c0.1,0.3,0.2,0.6,0.2,1c0,0.4,0,0.8,0,1.2
	s-0.3,0.7-1,1s-1.3,0.4-2,0.5h-9c-0.7,0.2-1.3,0.2-2,0s-1.3-0.5-2-0.8l-0.7-0.6c-0.7-0.5-1.5-1.2-2.5-2.3c-1-1.1-1.8-1.9-2.4-2.6
	c-0.6-0.7-1.3-1.3-2.2-2s-1.5-0.9-2-0.7l-0.3,0.2l-0.6,0.4l-0.8,1l-0.7,2L40,52c0,0.4,0,0.7,0,1s-0.1,0.5-0.3,0.7l-0.2,0.2
	c-0.4,0.4-1.1,0.6-2,0.7h-4c-1.7,0-3.4-0.2-5.2-0.6c-1.8-0.4-3.4-1-4.7-1.8s-2.6-1.6-3.7-2.4s-2-1.5-2.6-2l-1-1l-0.8-1l-2.6-3.2
	l-3.8-5.4l-4.4-7.5L0.2,20C0.1,19.6,0,19.3,0,19s0-0.5,0-0.6l0.2-0.2c0.4-0.5,1.1-0.7,2-0.7H12c0.3,0,0.7,0.1,1,0.2
	c0.3,0.1,0.5,0.2,0.4,0.3h0.2c0.4,0.3,0.7,0.7,1,1.2c0.3,1.2,0.7,2.5,1.4,3.8c0.7,1.3,1.2,2.3,1.6,3l0.5,1c0.8,1.3,1.5,2.5,2,3.6
	c0.5,1.1,1.2,1.9,2,2.5c0.8,0.6,1.3,1.1,1.4,1.4S24,35,24.7,35s1-0.1,1-0.3s0.2-0.5,0.5-1c0.3-0.5,0.5-1,0.6-1.6
	c0.1-0.6,0.2-1.5,0.4-2.8s0.2-2.8,0-4.5c0-0.9-0.1-1.8-0.4-2.6c-0.3-0.8-0.4-1.3-0.5-1.5V20c-0.7-0.7-1.7-1.2-3-1.5
	c-0.4,0-0.4-0.3,0-0.8c0.4-0.5,0.9-0.8,1.4-1c1.3-0.7,4.2-1,8.6-1c2,0,3.6,0.2,4.8,0.5c0.5,0.1,0.9,0.3,1.2,0.5s0.6,0.5,0.7,1
	c0.1,0.5,0.3,0.8,0.4,1c0.1,0.2,0.2,0.7,0.2,1.6c0,0.9,0,1.5,0,2c0,0.5,0,1.3,0,2.5s-0.1,2.2-0.2,3v4.6l0.5,1.4l0.8,1
	c0.2,0,0.4,0,0.6,0s0.5-0.1,1-0.4s0.9-0.7,1.2-1.2c0.3-0.5,1-1.3,2-2.4c1-1.1,1.8-2.3,2.3-3.8c1.3-2.5,2.6-5.2,3.8-8
	c0.1-0.3,0.3-0.5,0.4-0.7c0.1-0.2,0.3-0.3,0.4-0.4l0.2-0.2h0.2l0.5-0.2h10.9c0.8-0.1,1.5-0.1,2,0c0.5,0.1,0.9,0.3,1.2,0.6L68.5,18.6
	z"/>
</svg>
