<?xml version="1.0" encoding="utf-8"?>
<!-- Generator: Adobe Illustrator 21.0.0, SVG Export Plug-In . SVG Version: 6.00 Build 0)  -->
<svg version="1.1" id="logo" xmlns="http://www.w3.org/2000/svg" xmlns:xlink="http://www.w3.org/1999/xlink" x="0px" y="0px"
	 viewBox="0 0 300 300" style="enable-background:new 0 0 300 300;" xml:space="preserve">
<style type="text/css">
	.st0{fill:#FFFFFF;}
</style>
<title>logo-copy</title>
<path class="st0" d="M301.1,86.7c-0.5,1.5-0.8,3-1,4.6c-2,8-5,16-10.4,23c-11,13.7-26,18.8-43,14c-6-1.6-11.6-0.8-16,3.2
	c-14,12.2-27.7,25-42,38c1.4,1,2.8,2.1,4,3.3l62,57.5c7.8,7.2,7.8,15.6,0.8,23.2l-13,13.3c-8,8-17,7.7-24-1l-53-63.5l-3.6-4.2
	l-4.5,4.7l-56,60c-7.3,7.9-16.4,10.6-26.8,7.4c-4.3-1.2-8.2-3.7-11.2-7c0,0-0.1-0.1-0.1-0.1c-9.1-10.1-8.3-25.7,1.8-34.9
	c21-19,42-37.4,63-56l4.8-4.3l-36.5-37.2l28-28l37.4,38.6l34.6-35c6.5-6.6,8.5-14.1,6.5-23.3c-1.2-5.9-1.2-11.9,0-17.8
	c6.2-28.9,40.7-44.2,66.7-30.2c1.6,1.2,3.2,2.5,4.6,4l-22.5,14.4c-8.2,5.2-11.1,12.4-7.8,21.4c1.7,4.7,4.2,9.1,7.3,13
	c6.7,8.3,16.4,9.5,25.4,3.8c6.6-4.4,13.2-8.6,19.6-13c2-1.3,3.5-1.6,5,0.4L301.1,86.7z M69.2,246.7L69.2,246.7c0,7.2,5.8,13,13,13
	s13-5.8,13-13s-5.8-13-13-13S69.2,239.5,69.2,246.7L69.2,246.7z M1,119.1c1.6-2,3-4,5-6c6.5-6.5,9-7,18-3.5c1.7,0.4,3.4,0.3,5-0.3
	c6-2,9-6.7,10-13c0.3-3.8,0-7.8,1-11.6c0.7-3.3,2-6.3,4-9C50,69,56.7,63,63,56.5c17-18,38-26.5,62.4-27c15.1-0.3,30.2,1.8,44.7,6
	l-0.7,8.7c-4.9,0.6-9.6,1-14.2,1.8c-17,3.3-32.5,10-44.4,22.4c-7.2,7-7,14.2,0,21c2.1,2,4.5,3.7,8.3,7l-27,25c-1,1.2-2,2.4-2.8,3.7
	c-2.3-2.3-3.7-4-5.3-6c-6.5-6.9-13.1-8.3-21.5-3.3c-4,2.6-7.7,5.7-10.8,9.4c-3,3.3-4.2,7-1,11.6c2.9,4,1.6,8.5-1.4,12.5
	c-1.6,1.9-3.4,3.7-5.3,5.3c-4.4,4.1-10.2,4.7-14.4,0.7c-9.8-9.5-19-19.5-28.4-29.3L1,119.1z"/>
<path class="st0" d="M233,246.7c-0.1,7.2-6,12.9-13.2,12.8c-7.2-0.1-12.9-6-12.8-13.2c0.1-7.2,6-12.9,13.2-12.8h0.2
	C227.5,233.7,233.1,239.6,233,246.7z"/>
</svg>
