<?xml version="1.0" encoding="utf-8"?>
<!-- Generator: Adobe Illustrator 21.0.0, SVG Export Plug-In . SVG Version: 6.00 Build 0)  -->
<svg version="1.1" id="logo" xmlns="http://www.w3.org/2000/svg" xmlns:xlink="http://www.w3.org/1999/xlink" x="0px" y="0px"
	 viewBox="0 0 300 300" style="enable-background:new 0 0 300 300;" xml:space="preserve">
<style type="text/css">
	.st0{fill:#4280FF;}
	.st1{fill:#FFFFFF;}
</style>
<title>Монтажная область 1</title>
<path class="st0" d="M1,79c1.5-2,3-1.7,5-0.4c6.4,4.4,13,8.6,19.6,13c9,5.7,18.7,4.5,25.4-3.8c3.1-3.9,5.6-8.3,7.3-13
	c3.3-9,0.4-16.2-7.8-21.4L28,39c1.8-1.6,3-3,4.6-4c26-14,60.5,1.3,66.7,30.2c1.2,5.9,1.2,11.9,0,17.8c-2,9.2,0,16.7,6.5,23.3
	l34.6,35l37.4-38.6l28,28l-36.5,37.2l4.8,4.4c21,18.6,42,37,62.8,56c10.1,9.1,11,24.7,1.8,34.9c-3,3.4-6.9,5.8-11.2,7.1
	c-10.4,3.2-19.5,0.5-26.8-7.4l-56-60c-1.4-1.3-2.8-2.7-4.5-4.6l-3.6,4.2L83.7,266c-7.2,8.7-16,9-24,1l-13-13.3
	c-7.2-7.6-7-16,0.7-23.2l62-57.5c1-1,2.2-2,4-3.3c-14.3-13-28-25.8-42-38c-4.4-4-10-4.8-16-3.2c-17,4.8-32-0.3-43-14
	C7,107.4,4,99.6,2,91.4c-0.2-1.7-0.6-3-1-4.5V79z M233,246.7c0-7.2-5.8-13-13-13s-13,5.8-13,13s5.8,13,13,13S233,253.9,233,246.7z
	 M301,126c-9.4,9.8-18.6,19.8-28.4,29.3c-4.2,4-10,3.4-14.4-0.7c-1.9-1.6-3.7-3.4-5.3-5.3c-3-4-4.2-8.5-1.3-12.5
	c3.2-4.6,2-8.3-1-11.6c-3.1-3.7-6.8-6.8-10.8-9.4c-8.4-5-15-3.6-21.5,3.3c-1.6,1.8-3,3.6-5.3,6c-0.8-1.3-1.8-2.6-2.8-3.8l-27-25
	c3.8-3.3,6.2-5,8.3-7c7-6.8,7.2-14,0-21C179.5,56,164,49.3,147,46c-4.6-0.8-9.3-1.2-14.2-1.8l-0.7-8.7c14.5-4.2,29.5-6.3,44.6-6
	c24.4,0.5,45.4,9,62.4,27c6.2,6.5,13,12.5,19,19.2c2,2.4,3.3,6,4,9c1,3.8,0.6,7.8,1,11.6c0.8,6.3,4,11,10,13
	c1.5,0.6,3.2,0.7,4.8,0.3c9-3.5,11.6-3,18,3.5c2,2,3.5,4,5.2,6L301,126z"/>
<path class="st1" d="M233,246.7c-0.1,7.2-6,12.9-13.2,12.8c-7.2-0.1-12.9-6-12.8-13.2s6-12.9,13.2-12.8c0.1,0,0.1,0,0.2,0
	C227.5,233.7,233.2,239.6,233,246.7L233,246.7z"/>
</svg>
